<svg xmlns="http://www.w3.org/2000/svg" xmlns:xlink="http://www.w3.org/1999/xlink" width="500" zoomAndPan="magnify" viewBox="0 0 375 374.999991" height="500" preserveAspectRatio="xMidYMid meet" version="1.0"><defs><g/></defs><g fill="#ad9551" fill-opacity="1"><g transform="translate(108.896424, 218.613409)"><g><path d="M 88.632812 -97.621094 C 59.320312 -97.621094 50.46875 -56.554688 47.84375 -24.75 L 16.316406 -97.621094 L 4.839844 -97.621094 L 4.839844 0 L 5.667969 0 L 5.667969 -95.132812 L 9.539062 -86.007812 L 46.875 0 L 48.257812 0 C 48.257812 -25.164062 50.46875 -82.6875 78.125 -94.300781 L 78.125 0 L 88.632812 0 Z M 88.632812 -97.621094 "/></g></g></g><g fill="#ad9551" fill-opacity="1"><g transform="translate(285.166276, 120.945695)"><g><path d="M -43.65625 53.539062 C -55.597656 55.050781 -65.757812 61.914062 -65.757812 75.367188 C -65.757812 91.015625 -49.144531 97.058594 -28.964844 97.058594 L -4.804688 97.058594 L -4.804688 0 L -15.648438 0 L -15.648438 77.015625 C -16.886719 71.25 -18.53125 66.855469 -21.003906 62.875 C -25.121094 56.421875 -31.023438 52.988281 -37.753906 52.988281 C -68.777344 52.988281 -37.753906 0 -87.722656 0 L -87.722656 1.097656 C -78.523438 1.097656 -73.445312 11.53125 -68.226562 23.476562 C -62.738281 36.378906 -57.933594 50.246094 -43.65625 53.539062 Z M -54.910156 75.367188 C -54.910156 60.953125 -47.5 54.5 -38.714844 53.949219 L -37.753906 53.949219 C -31.4375 53.949219 -25.808594 57.933594 -21.964844 63.5625 C -18.121094 69.601562 -15.648438 77.425781 -15.648438 87.449219 L -15.648438 95.957031 L -28.964844 95.957031 C -42.28125 95.957031 -54.910156 91.015625 -54.910156 75.367188 Z M -54.910156 75.367188 "/></g></g></g><g fill="#ad9551" fill-opacity="1"><g transform="translate(112.433186, 239.413451)"><g><path d="M 5.863281 0.136719 C 7.394531 0.136719 8.695312 -0.246094 9.335938 -0.601562 L 9.554688 -2.378906 L 9.40625 -2.390625 C 8.871094 -0.914062 7.722656 -0.136719 6.246094 -0.136719 C 3.402344 -0.136719 1.84375 -2.597656 1.859375 -5.167969 C 1.859375 -7.957031 3.539062 -9.40625 5.714844 -9.40625 C 7.339844 -9.40625 8.640625 -8.570312 9.171875 -7.328125 L 9.308594 -7.355469 L 9.253906 -8.980469 C 8.722656 -9.324219 7.355469 -9.664062 6.179688 -9.664062 C 2.964844 -9.664062 0.710938 -7.503906 0.710938 -4.59375 C 0.710938 -1.613281 2.71875 0.136719 5.863281 0.136719 Z M 5.863281 0.136719 "/></g></g></g><g fill="#ad9551" fill-opacity="1"><g transform="translate(122.561359, 239.413451)"><g><path d="M 0.695312 0 L 2.910156 0 L 2.910156 -0.175781 C 2.488281 -0.300781 2.363281 -0.613281 2.363281 -1.734375 L 2.363281 -4.960938 L 7.574219 -4.960938 L 7.574219 -1.734375 C 7.574219 -0.613281 7.4375 -0.300781 7.027344 -0.175781 L 7.027344 0 L 9.242188 0 L 9.242188 -0.175781 C 8.816406 -0.300781 8.695312 -0.613281 8.695312 -1.734375 L 8.695312 -7.832031 C 8.695312 -8.953125 8.816406 -9.269531 9.242188 -9.390625 L 9.242188 -9.570312 L 7.027344 -9.570312 L 7.027344 -9.390625 C 7.4375 -9.269531 7.574219 -8.953125 7.574219 -7.832031 L 7.574219 -5.179688 L 2.363281 -5.179688 L 2.363281 -7.832031 C 2.363281 -8.953125 2.488281 -9.269531 2.910156 -9.390625 L 2.910156 -9.570312 L 0.695312 -9.570312 L 0.695312 -9.390625 C 1.105469 -9.269531 1.242188 -8.953125 1.242188 -7.832031 L 1.242188 -1.734375 C 1.242188 -0.613281 1.105469 -0.300781 0.695312 -0.175781 Z M 0.695312 0 "/></g></g></g><g fill="#ad9551" fill-opacity="1"><g transform="translate(132.484505, 239.413451)"><g><path d="M 0.695312 0 L 7.4375 0 L 7.546875 -1.816406 L 7.394531 -1.84375 C 6.902344 -0.574219 6.070312 -0.203125 4.757812 -0.203125 L 2.980469 -0.203125 C 2.582031 -0.203125 2.363281 -0.421875 2.363281 -0.820312 L 2.363281 -5.015625 L 4.113281 -5.015625 C 5.671875 -5.015625 6.070312 -4.703125 6.234375 -4.085938 L 6.398438 -4.085938 L 6.398438 -6.152344 L 6.234375 -6.152344 C 6.070312 -5.535156 5.671875 -5.222656 4.113281 -5.222656 L 2.363281 -5.222656 L 2.363281 -9.363281 L 4.375 -9.363281 C 5.769531 -9.363281 6.574219 -8.953125 7.054688 -7.75 L 7.203125 -7.792969 L 7.054688 -9.570312 L 0.695312 -9.570312 L 0.695312 -9.390625 C 1.105469 -9.269531 1.242188 -8.953125 1.242188 -7.832031 L 1.242188 -1.734375 C 1.242188 -0.613281 1.105469 -0.300781 0.695312 -0.175781 Z M 0.695312 0 "/></g></g></g><g fill="#ad9551" fill-opacity="1"><g transform="translate(140.535105, 239.413451)"><g><path d="M 0.695312 0 L 2.910156 0 L 2.910156 -0.175781 C 2.488281 -0.300781 2.363281 -0.613281 2.363281 -1.734375 L 2.363281 -5.125 L 3.992188 -5.125 C 5.550781 -5.125 5.933594 -4.796875 6.109375 -4.183594 L 6.273438 -4.183594 L 6.273438 -6.261719 L 6.109375 -6.261719 C 5.933594 -5.660156 5.550781 -5.332031 3.992188 -5.34375 L 2.363281 -5.34375 L 2.363281 -9.351562 L 4.785156 -9.351562 C 6.070312 -9.351562 6.644531 -9.007812 7.109375 -8.09375 L 7.257812 -8.132812 L 7.136719 -9.570312 L 0.695312 -9.570312 L 0.695312 -9.390625 C 1.105469 -9.269531 1.242188 -8.953125 1.242188 -7.832031 L 1.242188 -1.734375 C 1.242188 -0.613281 1.105469 -0.300781 0.695312 -0.175781 Z M 0.695312 0 "/></g></g></g><g fill="#ad9551" fill-opacity="1"><g transform="translate(148.175653, 239.413451)"><g/></g></g><g fill="#ad9551" fill-opacity="1"><g transform="translate(151.045986, 239.413451)"><g><path d="M 0.683594 0 L 2.40625 0 L 2.40625 -0.175781 C 1.804688 -0.339844 1.476562 -0.722656 1.476562 -2.28125 L 1.476562 -8.351562 L 4.976562 -2.597656 L 5.234375 -2.597656 L 8.707031 -8.460938 L 8.707031 -1.734375 C 8.707031 -0.613281 8.570312 -0.300781 8.160156 -0.175781 L 8.160156 0 L 10.375 0 L 10.375 -0.175781 C 9.949219 -0.300781 9.828125 -0.613281 9.828125 -1.734375 L 9.828125 -7.285156 C 9.828125 -8.84375 10.113281 -9.226562 10.660156 -9.390625 L 10.660156 -9.570312 L 9.117188 -9.570312 L 5.617188 -3.675781 L 2.050781 -9.570312 L 0.394531 -9.570312 L 0.394531 -9.390625 C 0.941406 -9.226562 1.230469 -8.84375 1.230469 -7.285156 L 1.230469 -1.734375 C 1.230469 -0.613281 1.105469 -0.300781 0.683594 -0.175781 Z M 0.683594 0 "/></g></g></g><g fill="#ad9551" fill-opacity="1"><g transform="translate(162.404299, 239.413451)"><g><path d="M 5.578125 0.136719 C 7.875 0.136719 10.414062 -1.367188 10.414062 -4.742188 C 10.414062 -8.09375 7.886719 -9.679688 5.578125 -9.679688 C 2.679688 -9.679688 0.710938 -7.601562 0.710938 -4.796875 C 0.710938 -1.40625 3.253906 0.136719 5.578125 0.136719 Z M 1.804688 -5.589844 C 1.722656 -7.820312 2.9375 -9.363281 5.015625 -9.363281 C 7.464844 -9.363281 9.253906 -6.699219 9.351562 -3.839844 C 9.417969 -1.789062 8.339844 -0.203125 6.152344 -0.203125 C 3.703125 -0.203125 1.898438 -2.84375 1.804688 -5.589844 Z M 1.804688 -5.589844 "/></g></g></g><g fill="#ad9551" fill-opacity="1"><g transform="translate(173.516582, 239.413451)"><g><path d="M 7.914062 0.109375 L 8.09375 0.109375 L 8.09375 -7.832031 C 8.09375 -8.953125 8.214844 -9.269531 8.640625 -9.390625 L 8.640625 -9.570312 L 6.917969 -9.570312 L 6.917969 -9.390625 C 7.53125 -9.226562 7.859375 -8.84375 7.859375 -7.285156 L 7.859375 -1.832031 L 1.886719 -9.570312 L 0.546875 -9.570312 L 0.546875 -9.390625 C 1.09375 -9.269531 1.257812 -8.953125 1.257812 -7.832031 L 1.257812 -1.734375 C 1.257812 -0.613281 1.121094 -0.300781 0.710938 -0.175781 L 0.710938 0 L 2.417969 0 L 2.417969 -0.175781 C 1.804688 -0.339844 1.476562 -0.722656 1.476562 -2.28125 L 1.476562 -8.269531 Z M 7.914062 0.109375 "/></g></g></g><g fill="#ad9551" fill-opacity="1"><g transform="translate(182.701647, 239.413451)"><g><path d="M 0.695312 0 L 2.910156 0 L 2.910156 -0.175781 C 2.488281 -0.300781 2.363281 -0.613281 2.363281 -1.734375 L 2.363281 -7.832031 C 2.363281 -8.953125 2.488281 -9.269531 2.910156 -9.390625 L 2.910156 -9.570312 L 0.695312 -9.570312 L 0.695312 -9.390625 C 1.105469 -9.269531 1.242188 -8.953125 1.242188 -7.832031 L 1.242188 -1.734375 C 1.242188 -0.613281 1.105469 -0.300781 0.695312 -0.175781 Z M 0.695312 0 "/></g></g></g><g fill="#ad9551" fill-opacity="1"><g transform="translate(186.310061, 239.413451)"><g><path d="M 9.515625 2.390625 C 10.222656 2.390625 10.8125 1.804688 11.46875 1.039062 L 11.359375 0.941406 C 11.003906 1.3125 10.566406 1.515625 9.9375 1.515625 C 8.832031 1.515625 7.765625 0.859375 6.671875 0.0273438 C 8.613281 -0.382812 10.414062 -1.898438 10.414062 -4.742188 C 10.414062 -8.09375 7.886719 -9.679688 5.578125 -9.679688 C 2.679688 -9.679688 0.710938 -7.601562 0.710938 -4.796875 C 0.710938 -1.40625 3.253906 0.136719 5.578125 0.136719 C 5.851562 0.136719 6.136719 0.109375 6.425781 0.0664062 C 7.082031 0.929688 8.3125 2.390625 9.515625 2.390625 Z M 1.804688 -5.589844 C 1.722656 -7.820312 2.9375 -9.363281 5.015625 -9.363281 C 7.464844 -9.363281 9.253906 -6.699219 9.351562 -3.839844 C 9.417969 -1.789062 8.339844 -0.203125 6.152344 -0.203125 C 3.703125 -0.203125 1.898438 -2.84375 1.804688 -5.589844 Z M 1.804688 -5.589844 "/></g></g></g><g fill="#ad9551" fill-opacity="1"><g transform="translate(197.422345, 239.413451)"><g><path d="M 4.933594 0.136719 C 6.835938 0.136719 8.339844 -0.902344 8.339844 -3.648438 L 8.339844 -7.832031 C 8.339844 -8.953125 8.476562 -9.269531 8.886719 -9.390625 L 8.886719 -9.570312 L 7.191406 -9.570312 L 7.191406 -9.390625 C 7.792969 -9.226562 8.121094 -8.84375 8.121094 -7.285156 L 8.121094 -3.609375 C 8.121094 -0.929688 6.546875 -0.148438 5.371094 -0.148438 C 3.59375 -0.148438 2.1875 -1.066406 2.1875 -3.609375 L 2.1875 -7.832031 C 2.1875 -8.953125 2.324219 -9.269531 2.734375 -9.390625 L 2.734375 -9.570312 L 0.519531 -9.570312 L 0.519531 -9.390625 C 0.941406 -9.269531 1.066406 -8.953125 1.066406 -7.832031 L 1.066406 -3.527344 C 1.066406 -0.777344 2.980469 0.136719 4.933594 0.136719 Z M 4.933594 0.136719 "/></g></g></g><g fill="#ad9551" fill-opacity="1"><g transform="translate(206.703085, 239.413451)"><g><path d="M 0.695312 0 L 7.4375 0 L 7.546875 -1.816406 L 7.394531 -1.84375 C 6.902344 -0.574219 6.070312 -0.203125 4.757812 -0.203125 L 2.980469 -0.203125 C 2.582031 -0.203125 2.363281 -0.421875 2.363281 -0.820312 L 2.363281 -5.015625 L 4.113281 -5.015625 C 5.671875 -5.015625 6.070312 -4.703125 6.234375 -4.085938 L 6.398438 -4.085938 L 6.398438 -6.152344 L 6.234375 -6.152344 C 6.070312 -5.535156 5.671875 -5.222656 4.113281 -5.222656 L 2.363281 -5.222656 L 2.363281 -9.363281 L 4.375 -9.363281 C 5.769531 -9.363281 6.574219 -8.953125 7.054688 -7.75 L 7.203125 -7.792969 L 7.054688 -9.570312 L 0.695312 -9.570312 L 0.695312 -9.390625 C 1.105469 -9.269531 1.242188 -8.953125 1.242188 -7.832031 L 1.242188 -1.734375 C 1.242188 -0.613281 1.105469 -0.300781 0.695312 -0.175781 Z M 0.695312 0 "/></g></g></g><g fill="#ad9551" fill-opacity="1"><g transform="translate(214.753685, 239.413451)"><g/></g></g><g fill="#ad9551" fill-opacity="1"><g transform="translate(217.624018, 239.413451)"><g><path d="M 7.65625 0.09375 C 7.929688 0.09375 8.285156 0.0664062 8.488281 0 L 8.488281 -0.164062 C 8.421875 -0.148438 8.351562 -0.148438 8.269531 -0.148438 C 7.804688 -0.148438 7.53125 -0.601562 6.875 -2.242188 C 6.21875 -3.921875 5.960938 -4.757812 4.277344 -4.976562 C 6.054688 -5.179688 6.984375 -6.152344 6.984375 -7.4375 C 6.984375 -8.652344 6.164062 -9.570312 3.390625 -9.570312 L 0.695312 -9.570312 L 0.695312 -9.390625 C 1.121094 -9.269531 1.242188 -8.953125 1.242188 -7.832031 L 1.242188 -1.734375 C 1.242188 -0.613281 1.121094 -0.300781 0.695312 -0.175781 L 0.695312 0 L 2.910156 0 L 2.910156 -0.175781 C 2.488281 -0.300781 2.363281 -0.613281 2.363281 -1.734375 L 2.363281 -4.933594 L 3.238281 -4.933594 C 4.878906 -4.933594 4.988281 -3.976562 5.78125 -2.089844 C 6.382812 -0.667969 6.601562 0.09375 7.65625 0.09375 Z M 2.363281 -5.140625 L 2.363281 -9.335938 C 2.582031 -9.351562 2.800781 -9.363281 3.007812 -9.363281 C 5.03125 -9.363281 5.824219 -8.339844 5.824219 -7.121094 C 5.824219 -5.960938 5.085938 -5.140625 3.511719 -5.140625 Z M 2.363281 -5.140625 "/></g></g></g><g fill="#ad9551" fill-opacity="1"><g transform="translate(225.988987, 239.413451)"><g><path d="M -0.230469 0 L 1.3125 0 L 1.3125 -0.175781 C 0.847656 -0.273438 0.792969 -0.722656 1.148438 -1.613281 L 1.953125 -3.609375 L 5.808594 -3.609375 L 6.644531 -1.597656 C 7.082031 -0.574219 7.191406 -0.300781 6.765625 -0.175781 L 6.765625 0 L 8.886719 0 L 8.886719 -0.175781 C 8.597656 -0.300781 8.269531 -0.574219 7.847656 -1.597656 L 4.484375 -9.679688 L 3.457031 -9.214844 L 3.582031 -8.925781 C 3.691406 -8.707031 3.703125 -8.53125 3.609375 -8.285156 L 0.914062 -1.613281 C 0.492188 -0.574219 0.148438 -0.300781 -0.230469 -0.175781 Z M 2.035156 -3.8125 L 3.855469 -8.3125 L 5.726562 -3.8125 Z M 2.035156 -3.8125 "/></g></g></g><g fill="#ad9551" fill-opacity="1"><g transform="translate(234.750339, 239.413451)"><g><path d="M 7.914062 0.109375 L 8.09375 0.109375 L 8.09375 -7.832031 C 8.09375 -8.953125 8.214844 -9.269531 8.640625 -9.390625 L 8.640625 -9.570312 L 6.917969 -9.570312 L 6.917969 -9.390625 C 7.53125 -9.226562 7.859375 -8.84375 7.859375 -7.285156 L 7.859375 -1.832031 L 1.886719 -9.570312 L 0.546875 -9.570312 L 0.546875 -9.390625 C 1.09375 -9.269531 1.257812 -8.953125 1.257812 -7.832031 L 1.257812 -1.734375 C 1.257812 -0.613281 1.121094 -0.300781 0.710938 -0.175781 L 0.710938 0 L 2.417969 0 L 2.417969 -0.175781 C 1.804688 -0.339844 1.476562 -0.722656 1.476562 -2.28125 L 1.476562 -8.269531 Z M 7.914062 0.109375 "/></g></g></g><g fill="#ad9551" fill-opacity="1"><g transform="translate(243.935404, 239.413451)"><g><path d="M -0.230469 0 L 1.3125 0 L 1.3125 -0.175781 C 0.847656 -0.273438 0.792969 -0.722656 1.148438 -1.613281 L 1.953125 -3.609375 L 5.808594 -3.609375 L 6.644531 -1.597656 C 7.082031 -0.574219 7.191406 -0.300781 6.765625 -0.175781 L 6.765625 0 L 8.886719 0 L 8.886719 -0.175781 C 8.597656 -0.300781 8.269531 -0.574219 7.847656 -1.597656 L 4.484375 -9.679688 L 3.457031 -9.214844 L 3.582031 -8.925781 C 3.691406 -8.707031 3.703125 -8.53125 3.609375 -8.285156 L 0.914062 -1.613281 C 0.492188 -0.574219 0.148438 -0.300781 -0.230469 -0.175781 Z M 2.035156 -3.8125 L 3.855469 -8.3125 L 5.726562 -3.8125 Z M 2.035156 -3.8125 "/></g></g></g><g fill="#ad9551" fill-opacity="1"><g transform="translate(252.69675, 239.413451)"><g><path d="M 4.933594 0.136719 C 6.835938 0.136719 8.339844 -0.902344 8.339844 -3.648438 L 8.339844 -7.832031 C 8.339844 -8.953125 8.476562 -9.269531 8.886719 -9.390625 L 8.886719 -9.570312 L 7.191406 -9.570312 L 7.191406 -9.390625 C 7.792969 -9.226562 8.121094 -8.84375 8.121094 -7.285156 L 8.121094 -3.609375 C 8.121094 -0.929688 6.546875 -0.148438 5.371094 -0.148438 C 3.59375 -0.148438 2.1875 -1.066406 2.1875 -3.609375 L 2.1875 -7.832031 C 2.1875 -8.953125 2.324219 -9.269531 2.734375 -9.390625 L 2.734375 -9.570312 L 0.519531 -9.570312 L 0.519531 -9.390625 C 0.941406 -9.269531 1.066406 -8.953125 1.066406 -7.832031 L 1.066406 -3.527344 C 1.066406 -0.777344 2.980469 0.136719 4.933594 0.136719 Z M 4.933594 0.136719 "/></g></g></g><g fill="#ad9551" fill-opacity="1"><g transform="translate(261.97749, 239.413451)"><g><path d="M 7.65625 0.09375 C 7.929688 0.09375 8.285156 0.0664062 8.488281 0 L 8.488281 -0.164062 C 8.421875 -0.148438 8.351562 -0.148438 8.269531 -0.148438 C 7.804688 -0.148438 7.53125 -0.601562 6.875 -2.242188 C 6.21875 -3.921875 5.960938 -4.757812 4.277344 -4.976562 C 6.054688 -5.179688 6.984375 -6.152344 6.984375 -7.4375 C 6.984375 -8.652344 6.164062 -9.570312 3.390625 -9.570312 L 0.695312 -9.570312 L 0.695312 -9.390625 C 1.121094 -9.269531 1.242188 -8.953125 1.242188 -7.832031 L 1.242188 -1.734375 C 1.242188 -0.613281 1.121094 -0.300781 0.695312 -0.175781 L 0.695312 0 L 2.910156 0 L 2.910156 -0.175781 C 2.488281 -0.300781 2.363281 -0.613281 2.363281 -1.734375 L 2.363281 -4.933594 L 3.238281 -4.933594 C 4.878906 -4.933594 4.988281 -3.976562 5.78125 -2.089844 C 6.382812 -0.667969 6.601562 0.09375 7.65625 0.09375 Z M 2.363281 -5.140625 L 2.363281 -9.335938 C 2.582031 -9.351562 2.800781 -9.363281 3.007812 -9.363281 C 5.03125 -9.363281 5.824219 -8.339844 5.824219 -7.121094 C 5.824219 -5.960938 5.085938 -5.140625 3.511719 -5.140625 Z M 2.363281 -5.140625 "/></g></g></g><g fill="#ad9551" fill-opacity="1"><g transform="translate(270.342466, 239.413451)"><g><path d="M 5.578125 0.136719 C 7.875 0.136719 10.414062 -1.367188 10.414062 -4.742188 C 10.414062 -8.09375 7.886719 -9.679688 5.578125 -9.679688 C 2.679688 -9.679688 0.710938 -7.601562 0.710938 -4.796875 C 0.710938 -1.40625 3.253906 0.136719 5.578125 0.136719 Z M 1.804688 -5.589844 C 1.722656 -7.820312 2.9375 -9.363281 5.015625 -9.363281 C 7.464844 -9.363281 9.253906 -6.699219 9.351562 -3.839844 C 9.417969 -1.789062 8.339844 -0.203125 6.152344 -0.203125 C 3.703125 -0.203125 1.898438 -2.84375 1.804688 -5.589844 Z M 1.804688 -5.589844 "/></g></g></g></svg>