<svg xmlns="http://www.w3.org/2000/svg" xmlns:xlink="http://www.w3.org/1999/xlink" width="500" zoomAndPan="magnify" viewBox="0 0 375 374.999991" height="500" preserveAspectRatio="xMidYMid meet" version="1.0"><defs><g/></defs><g fill="#8b0909" fill-opacity="1"><g transform="translate(108.896424, 218.613445)"><g><path d="M 88.632812 -97.621094 C 59.320312 -97.621094 50.46875 -56.554688 47.84375 -24.75 L 16.316406 -97.621094 L 4.839844 -97.621094 L 4.839844 0 L 5.667969 0 L 5.667969 -95.132812 L 9.539062 -86.007812 L 46.875 0 L 48.257812 0 C 48.257812 -25.164062 50.46875 -82.6875 78.125 -94.300781 L 78.125 0 L 88.632812 0 Z M 88.632812 -97.621094 "/></g></g></g><g fill="#8b0909" fill-opacity="1"><g transform="translate(285.889527, 121.046276)"><g><path d="M -43.972656 53.925781 C -56 55.449219 -66.234375 62.359375 -66.234375 75.910156 C -66.234375 91.675781 -49.5 97.757812 -29.175781 97.757812 L -4.839844 97.757812 L -4.839844 0 L -15.761719 0 L -15.761719 77.570312 C -17.007812 71.765625 -18.667969 67.339844 -21.15625 63.328125 C -25.304688 56.832031 -31.25 53.375 -38.023438 53.375 C -69.273438 53.375 -38.023438 0 -88.355469 0 L -88.355469 1.105469 C -79.09375 1.105469 -73.976562 11.613281 -68.722656 23.644531 C -63.191406 36.640625 -58.351562 50.609375 -43.972656 53.925781 Z M -55.308594 75.910156 C -55.308594 61.394531 -47.84375 54.894531 -38.992188 54.339844 L -38.023438 54.339844 C -31.664062 54.339844 -25.996094 58.351562 -22.125 64.019531 C -18.253906 70.105469 -15.761719 77.984375 -15.761719 88.082031 L -15.761719 96.652344 L -29.175781 96.652344 C -42.589844 96.652344 -55.308594 91.675781 -55.308594 75.910156 Z M -55.308594 75.910156 "/></g></g></g></svg>